<?xml version="1.0" encoding="utf-8"?><svg xmlns="http://www.w3.org/2000/svg" xmlns:xlink="http://www.w3.org/1999/xlink"><symbol viewBox="0 0 19 20" id="account" xmlns="http://www.w3.org/2000/svg"><path d="M13.185 12.69a4.184 4.184 0 011.95-.48h.003c.072 0 .106-.083.053-.13a8.938 8.938 0 00-2.486-1.543l-.028-.011c1.488-1.057 2.456-2.775 2.456-4.713C15.133 2.602 12.478 0 9.201 0c-3.276 0-5.93 2.602-5.93 5.813 0 1.938.969 3.656 2.46 4.713-.01.005-.02.007-.03.011a8.944 8.944 0 00-2.858 1.89 8.743 8.743 0 00-1.927 2.8 8.592 8.592 0 00-.705 3.237.184.184 0 00.054.136.192.192 0 00.138.056h1.435a.19.19 0 00.192-.183 6.919 6.919 0 012.1-4.788 7.197 7.197 0 015.074-2.06c1.359 0 2.662.368 3.787 1.057a.196.196 0 00.194.007zM9.204 9.843a4.14 4.14 0 01-2.91-1.181A4.008 4.008 0 015.4 7.354a3.968 3.968 0 01.894-4.393 4.128 4.128 0 012.91-1.18c1.1 0 2.13.419 2.91 1.18.383.374.686.819.893 1.308a3.968 3.968 0 01-.894 4.393 4.136 4.136 0 01-2.91 1.18zm8.815 5.578h-2.013v-1.969a.19.19 0 00-.192-.187h-1.342a.19.19 0 00-.192.187v1.969h-2.013a.19.19 0 00-.192.187v1.313a.19.19 0 00.192.187h2.013v1.97a.19.19 0 00.192.187h1.342a.19.19 0 00.192-.188V17.11h2.013a.19.19 0 00.192-.187V15.61a.19.19 0 00-.192-.187z"/></symbol><symbol viewBox="0 0 60 24" id="age" xmlns="http://www.w3.org/2000/svg"><rect x=".75" y=".75" width="58.254" height="22.5" rx="11.25"/><defs><linearGradient id="ba" x1="43.55" y1="24" x2="34.478" y2=".176" gradientUnits="userSpaceOnUse"><stop stop-color="#26FFF2"/><stop offset="1" stop-color="#326CFF"/></linearGradient></defs></symbol><symbol viewBox="0 0 157 70" id="logo" xmlns="http://www.w3.org/2000/svg"><rect x="2" y="2" width="66" height="66" rx="12"/><path d="M47.517 51.04c-1.733 0-2.973-.493-3.72-1.48-.746-1.013-1.12-2.493-1.12-4.44 0-1.947.627-6.427 1.88-13.44h-.64c-1.626 2.133-2.973 4.68-4.04 7.64-1.066 2.96-1.72 5.627-1.96 8-1.306 1.227-2.813 1.84-4.52 1.84-.693 0-1.306-.24-1.84-.72-.506-.507-1.013-1.373-1.52-2.6-.986-2.48-1.693-7.2-2.12-14.16h-.64c-1.306 5.733-1.96 9.773-1.96 12.12 0 2.347.4 4.16 1.2 5.44-1.6 1.2-3.266 1.8-5 1.8-1.733 0-2.973-.493-3.72-1.48-.746-1.013-1.12-2.507-1.12-4.48 0-2 .84-7.64 2.52-16.92l-2.12-4.28c3.014-1.947 5.76-2.92 8.24-2.92 1.094 0 2.014.12 2.76.36.774.213 1.507.64 2.2 1.28.72.64 1.307 1.533 1.76 2.68 1.04 2.587 1.787 6.36 2.24 11.32h.48c1.387-4.08 3.307-7.587 5.76-10.52a14.688 14.688 0 014.76-3.72c1.867-.907 3.88-1.36 6.04-1.36 2.054 0 3.08 1.24 3.08 3.72 0 .827-.52 3.907-1.56 9.24-1.013 5.307-1.52 8.467-1.52 9.48 0 2.587.4 4.52 1.2 5.8-1.6 1.2-3.266 1.8-5 1.8zm44.253-20.8c.774-1.067 1.828-1.933 3.16-2.6 1.36-.693 2.868-1.04 4.52-1.04 1.948 0 3.708.467 5.281 1.4 1.573.933 2.813 2.267 3.72 4 .907 1.707 1.36 3.667 1.36 5.88s-.453 4.2-1.36 5.96c-.907 1.733-2.16 3.093-3.76 4.08-1.573.96-3.32 1.44-5.24 1.44-1.707 0-3.227-.333-4.56-1-1.307-.667-2.347-1.52-3.12-2.56V49h-4.56V19.4h4.56v10.84zm13.401 7.64c0-1.52-.32-2.827-.96-3.92-.613-1.12-1.44-1.96-2.48-2.52a6.435 6.435 0 00-3.28-.88 6.58 6.58 0 00-3.28.88c-1.013.587-1.84 1.44-2.48 2.56-.613 1.12-.92 2.44-.92 3.96s.307 2.853.92 4c.64 1.12 1.467 1.973 2.48 2.56a6.58 6.58 0 003.28.88 6.435 6.435 0 003.28-.88c1.04-.613 1.867-1.493 2.48-2.64.64-1.147.96-2.48.96-4zm18.709 11.48c-2.08 0-3.96-.467-5.64-1.4-1.68-.96-3-2.293-3.96-4-.96-1.733-1.44-3.733-1.44-6 0-2.24.494-4.227 1.48-5.96.987-1.733 2.334-3.067 4.04-4 1.707-.933 3.614-1.4 5.72-1.4 2.107 0 4.014.467 5.72 1.4 1.707.933 3.054 2.267 4.04 4 .987 1.733 1.48 3.72 1.48 5.96 0 2.24-.506 4.227-1.52 5.96a10.627 10.627 0 01-4.16 4.04c-1.733.933-3.653 1.4-5.76 1.4zm0-3.96a6.67 6.67 0 003.28-.84c1.04-.56 1.88-1.4 2.52-2.52.64-1.12.96-2.48.96-4.08s-.306-2.947-.92-4.04c-.613-1.12-1.426-1.96-2.44-2.52a6.67 6.67 0 00-3.28-.84c-1.173 0-2.266.28-3.28.84-.986.56-1.773 1.4-2.36 2.52-.586 1.093-.88 2.44-.88 4.04 0 2.373.6 4.213 1.8 5.52 1.227 1.28 2.76 1.92 4.6 1.92zm25.388-7.56l7.12 11.16h-5.16l-4.76-7.48-4.48 7.48h-4.76l7.12-10.84-7.12-11.2h5.16l4.76 7.48 4.48-7.48h4.76l-7.12 10.88z"/><defs><linearGradient id="ca" x1="0" y1="5" x2="70" y2="70" gradientUnits="userSpaceOnUse"><stop stop-color="#326CFF"/><stop offset="1" stop-color="#26FFF2"/></linearGradient></defs></symbol><symbol viewBox="0 0 20 21" id="notice" xmlns="http://www.w3.org/2000/svg"><path d="M19.772 18.415a9.821 9.821 0 01-1.685-2.01 8.808 8.808 0 01-.906-3.298V9.72a7.637 7.637 0 00-.107-1.228 4.928 4.928 0 01-1.504-.576c.179.586.27 1.197.269 1.81v3.388a9.928 9.928 0 001.107 4.012c.464.75 1.013 1.44 1.638 2.057H1.396a11.048 11.048 0 001.638-2.057 9.927 9.927 0 001.107-4.012V9.72a6.15 6.15 0 01.44-2.315A6.047 6.047 0 015.857 5.44 5.9 5.9 0 017.77 4.123a5.797 5.797 0 012.263-.466 5.691 5.691 0 013.194.988 5.24 5.24 0 01-.174-1.2v-.432a6.99 6.99 0 00-2.229-.686v-.864a.926.926 0 00-.262-.647.886.886 0 00-1.267 0 .926.926 0 00-.262.647v.898a7.213 7.213 0 00-4.47 2.486 7.509 7.509 0 00-1.77 4.873v3.387a8.806 8.806 0 01-.906 3.299 9.826 9.826 0 01-1.658 2.009.685.685 0 00-.228.514v.933c0 .182.07.356.197.485.125.128.296.2.474.2H19.33a.664.664 0 00.474-.2.693.693 0 00.197-.485v-.933a.697.697 0 00-.228-.514z"/></symbol><symbol viewBox="0 0 14 18" id="play" xmlns="http://www.w3.org/2000/svg"><path d="M13.292 10.393L2.158 17.776C1.213 18.402 0 17.644 0 16.382V1.616C0 .356 1.21-.404 2.158.225l11.134 7.383c.215.14.394.343.518.587.124.245.19.523.19.805 0 .283-.066.561-.19.806a1.517 1.517 0 01-.518.587z"/></symbol><symbol viewBox="0 0 20 20" id="search" xmlns="http://www.w3.org/2000/svg"><path d="M19 19l-6-6 6 6zM15 8a7.002 7.002 0 01-9.679 6.467A7 7 0 1115 8z"/></symbol><symbol viewBox="0 0 16 16" id="star" xmlns="http://www.w3.org/2000/svg"><path d="M3.612 15.443c-.386.198-.824-.149-.746-.592l.83-4.73L.173 6.765c-.329-.314-.158-.888.283-.95l4.898-.696L7.538.792c.197-.39.73-.39.927 0l2.184 4.327 4.898.696c.441.062.612.636.283.95l-3.523 3.356.83 4.73c.078.443-.36.79-.746.592L8 13.187l-4.388 2.256z"/></symbol></svg>